<?xml version="1.0" encoding="UTF-8"?>
<svg width="336px" height="431px" viewBox="0 0 336 431" version="1.1" xmlns="http://www.w3.org/2000/svg" xmlns:xlink="http://www.w3.org/1999/xlink">
    <title>santa-claus</title>
    <g id="Page-1" stroke="none" stroke-width="1" fill="none" fill-rule="evenodd">
        <g id="Placeholder" transform="translate(-792.000000, -324.000000)" fill-rule="nonzero">
            <g id="santa-claus" transform="translate(792.324219, 324.000000)">
                <path d="M283.675781,57.3908895 C265.330112,67.0036778 265.277112,107.712061 265.277112,108.178146 L139.456963,138 L133.824632,135.592176 L69.6757812,108.177304 C69.6757812,108.177304 74.3322347,9.0282837 211.628206,18.6587394 C227.153924,19.7482337 244.374809,22.2258865 263.46753,26.3996168 L283.675781,57.3908895 Z" id="Path" fill="#FF525D"></path>
                <path d="M147.478501,103.314945 C150.185788,118.462893 144.446374,128.911034 133.846131,136 L69.6757812,108.490051 C69.6757812,108.490051 74.3337953,8.99716867 211.675781,18.661024 C211.675781,18.661024 135.147177,34.3906434 147.478501,103.314945 Z" id="Path" fill="#EF4152"></path>
                <circle id="Oval" fill="#FCF8F2" cx="294.675781" cy="31" r="31"></circle>
                <path d="M283.806144,31 C283.806144,17.283471 292.554973,5.65656289 304.675781,1.57145593 C301.66681,0.557175685 298.453022,0 295.110184,0 C278.301908,0 264.675781,13.8793566 264.675781,31 C264.675781,48.1206434 278.301908,62 295.110184,62 C298.453022,62 301.66681,61.4428243 304.674949,60.4285441 C292.554973,56.3442852 283.806144,44.716529 283.806144,31 Z" id="Path" fill="#E5E1DC"></path>
                <path d="M61.6009151,251 C46.7306301,251 34.6757812,238.911632 34.6757812,224 C34.6757812,209.088368 46.7306301,197 61.6009151,197 L274.750647,197 C289.620932,197 301.675781,209.088368 301.675781,224 C301.675781,238.911632 289.620932,251 274.750647,251" id="Path" fill="#EFC1AB"></path>
                <path d="M273.675781,202.725906 L273.675781,251.942098 C273.675781,263.857234 272.603903,282.477053 269.422764,295.991587 L64.9287981,296 C64.0941803,292.441108 63.4000678,288.522121 62.8372056,284.471042 C61.2554704,273.135593 60.6757812,260.72827 60.6757812,251.941257 L60.6757812,202.725065 C60.6757812,193.700792 61.8006642,184.939861 63.9183385,176.574362 L91.3690169,162.7174 L170.030897,123 L270.432383,176.575203 C272.550898,184.940702 273.675781,193.701634 273.675781,202.725906 Z" id="Path" fill="#FFDAC5"></path>
                <g id="Group" transform="translate(60.675781, 161.000000)" fill="#EFC1AB">
                    <path d="M28.4649897,134.424562 L4.62665979,134.424562 C1.43035052,120.871406 0.353360825,102.198375 0.353360825,90.2399062 L0.353360825,40.8830625 C0.353360825,31.833 1.48360825,23.0470312 3.61138144,14.657625 L25.4986186,8.0308125 C24.642268,22.2269062 24.1916907,35.1902812 24.1916907,40.8830625 L24.1916907,90.2399062 C24.1916907,102.198375 25.2686804,120.871406 28.4649897,134.424562 Z" id="Path"></path>
                    <path d="M64.0977938,92.3813437 C48.9734433,101.590031 22.2397526,114.050531 2.52424742,122.862656 C0.934969072,111.494812 0.352515464,99.0520312 0.352515464,90.2399062 L0.352515464,40.8830625 C0.352515464,31.833 1.48276289,23.0470312 3.61053608,14.657625 L31.1921237,0.7610625 L61.6699175,11.2125937 C85.5082474,11.2125937 90.0994021,76.555125 64.0977938,92.3813437 Z" id="Path"></path>
                </g>
                <path d="M274.675781,212.000842 L274.675781,251.921759 C274.675781,263.842395 273.603903,282.47081 270.422764,295.991583 L65.9287981,296 C62.7476593,282.479227 61.6757812,263.850813 61.6757812,251.920917 L61.6757812,212 C61.6757812,212 68.6438298,262.803696 108.414375,262.803696 L227.936346,262.803696 C267.707733,262.804537 274.675781,212.000842 274.675781,212.000842 Z" id="Path" fill="#E5E1DC"></path>
                <path d="M334.675781,431 C330.755917,393.091816 313.081181,359.067132 286.494601,333.577713 C280.06949,327.412183 273.117579,321.749273 265.71713,316.658136 L168.960091,272 L70.6352739,316.658136 C32.6223476,342.834863 6.53648086,383.931648 1.67578125,431" id="Path" fill="#FF525D"></path>
                <path d="M129.149535,316.65753 L197.675781,285.580092 L168.208543,272 L69.7371978,316.65753 C31.6684657,342.834395 5.54372451,383.931399 0.67578125,431 L60.0872757,431 C64.9552189,383.931399 91.0799601,342.834395 129.149535,316.65753 Z" id="Path" fill="#EF4152"></path>
                <path d="M118.175781,236 C114.585969,236 111.675781,233.113256 111.675781,229.552363 L111.675781,220.447637 C111.675781,216.886744 114.585969,214 118.175781,214 C121.765594,214 124.675781,216.886744 124.675781,220.447637 L124.675781,229.552363 C124.675781,233.113256 121.765594,236 118.175781,236 Z" id="Path" fill="#313344"></path>
                <path d="M266.675781,306.682732 C266.578926,308.203484 266.455961,309.979237 266.271515,311.973803 C265.911043,315.955362 265.32991,320.798708 264.424521,326.151215 C263.834966,329.632028 263.104759,333.314822 262.207792,337.120488 L262.207792,337.128904 C256.437727,361.502169 243.576993,390.561402 214.927961,398.480756 L208.612136,382.096698 L168.176202,421 L129.464298,383.741163 L127.748691,382.09754 L121.424444,398.481598 C92.7754114,390.562244 79.9146774,361.503852 74.1446126,337.129746 L74.1446126,337.12133 C73.2476459,333.315664 72.5174392,329.623612 71.9278836,326.142799 C71.5758347,324.032935 71.2684236,321.993764 71.0039658,320.060634 C70.5996991,317.107497 70.3091324,314.391689 70.0893124,311.983061 C69.9048657,309.979237 69.7726368,308.195068 69.6757812,306.674316 L76.5457883,304.274945 L84.0398821,301.65592 L162.810404,274.144369 L168.958627,272 L174.060809,273.810258 L252.180294,301.541464 L266.675781,306.682732 Z" id="Path" fill="#FCF8F2"></path>
                <path d="M220.175781,236 C216.585969,236 213.675781,233.113256 213.675781,229.552363 L213.675781,220.447637 C213.675781,216.886744 216.585969,214 220.175781,214 C223.765594,214 226.675781,216.886744 226.675781,220.447637 L226.675781,229.552363 C226.675781,233.113256 223.765594,236 220.175781,236 Z" id="Path" fill="#313344"></path>
                <path d="M142.675781,250.488702 C145.700791,239.265643 155.970502,231 168.175781,231 C180.380219,231 190.650771,239.265643 193.675781,250.488702 L168.147156,288 L142.675781,250.488702 Z" id="Path" fill="#FF525D"></path>
                <g id="Group" transform="translate(69.675781, 269.000000)" fill="#E5E1DC">
                    <path d="M196.554645,43.581871 C196.194321,47.5498065 195.613423,52.3765806 194.708402,57.7107742 C193.802538,58.1049677 192.888256,58.4907742 191.964714,58.8673548 C159.537167,72.1290323 114.448581,75.3966452 98.5075769,37.5725161 C82.557312,75.3966452 37.4779872,72.1290323 5.05044017,58.8673548 C4.11847863,58.4815484 3.1949359,58.0965806 2.28991453,57.7023871 C1.38405128,52.3849677 0.81241453,47.5590323 0.452089744,43.5910968 C5.40234615,40.9986452 9.87778205,37.3804516 14.3969957,33.2984516 C19.1889786,28.9715484 24.0247393,24.1187742 29.528953,19.4404516 C36.6243205,13.4227097 44.8191838,7.69348387 55.4142479,3.70793548 C71.0917436,-2.16974194 82.5480513,0.0377419355 90.3472308,4.14574194 C91.3322308,4.6623871 92.2641923,5.24109677 93.1346966,5.88019355 C95.2974872,7.42174194 97.1092137,9.28787097 98.5336752,11.3636774 C100.063372,9.14780645 102.033372,7.1676129 104.380534,5.54722581 C105.330175,4.88129032 106.349692,4.27741935 107.431509,3.74316129 C115.213009,-0.102322581 126.415068,-1.97683871 141.590803,3.70793548 C151.974556,7.60625806 160.028825,13.1769677 167.010538,19.0722581 C172.655346,23.8201935 177.579504,28.7601935 182.468303,33.1835484 C187.032137,37.31 191.552192,40.9801935 196.554645,43.581871 Z" id="Path"></path>
                    <path d="M59.8063376,115.107032 L58.0914274,113.469032 L51.7697479,129.797032 C23.1323462,121.904774 10.2768333,92.9458065 4.50911111,68.6550968 L4.50911111,68.6467097 C3.61250855,64.8540645 2.88259829,61.1746452 2.29328205,57.7057419 C1.94137607,55.6030968 1.63408974,53.5709032 1.36973932,51.6443871 C0.965636752,48.7013548 0.675188034,45.9948387 0.455457265,43.5944516 C0.27108547,41.5974839 0.138910256,39.8194194 0.0420940171,38.303871 L6.90931197,35.9127097 L43.3282137,60.5011613 C43.3290556,60.5003226 35.1518718,90.5454194 59.8063376,115.107032 Z" id="Path"></path>
                </g>
                <path d="M282.675781,297.642593 C276.838604,301.678679 269.621883,305.566057 261.613124,308.856929 C229.192591,322.132996 184.122175,325.414626 168.176202,287.517092 C160.352617,306.128119 145.50506,314.806039 128.573458,317.254239 C111.027416,319.781413 91.2390906,315.613424 74.7384381,308.856929 C66.738938,305.566057 59.5129586,301.679519 53.6757812,297.642593 C57.1040182,297.642593 60.242711,297.186391 63.1785544,296.343719 C76.9276953,292.447939 86.2276192,280.426218 99.220915,269.361428 C106.306331,263.333344 114.499422,257.585871 125.100611,253.601875 C140.774716,247.705695 152.228545,249.925374 160.026038,254.040434 C163.445858,255.839197 166.205787,258.348728 168.20987,261.261532 C170.363776,258.146252 173.370322,255.478772 177.105779,253.636321 C184.885596,249.784228 196.085233,247.898089 211.257685,253.601035 C221.630774,257.506057 229.683301,263.08634 236.662663,268.98252 C249.901735,280.143927 259.263945,292.410972 273.162066,296.342039 C276.109693,297.186391 279.247544,297.642593 282.675781,297.642593 Z" id="Path" fill="#FCF8F2"></path>
                <path d="M102.257442,207 C100.573425,207 98.8885664,206.350119 97.6037044,205.047805 C95.0331402,202.44573 95.0331402,198.227458 97.6037044,195.625383 C103.098611,190.063117 110.404425,187 118.175781,187 C125.946297,187 133.252951,190.063117 138.747858,195.625383 C141.318422,198.227458 141.318422,202.44658 138.747858,205.047805 C136.177294,207.649881 132.009266,207.649881 129.439542,205.047805 C126.431166,202.002552 122.430363,200.325111 118.175781,200.325111 C113.921199,200.325111 109.920396,202.002552 106.912021,205.047805 C105.626319,206.349268 103.94146,207 102.257442,207 Z" id="Path" fill="#E5E1DC"></path>
                <g id="Group" transform="translate(54.675781, 103.000000)" fill="#FCF8F2">
                    <path d="M181.836248,103.748387 C180.151404,103.748387 178.465719,103.107613 177.180226,101.823548 C174.170374,98.8209677 170.167607,97.1670323 165.910937,97.1670323 C161.654267,97.1670323 157.6515,98.8209677 154.641648,101.823548 C152.069822,104.389161 147.899748,104.389161 145.328763,101.823548 C142.756937,99.2579355 142.756937,95.0979355 145.328763,92.5331613 C150.826367,87.0488387 158.136607,84.0286452 165.910937,84.0286452 C173.686107,84.0286452 180.996348,87.0488387 186.493111,92.5331613 C189.064937,95.0987742 189.064937,99.2587742 186.493111,101.823548 C185.205937,103.106774 183.521093,103.748387 181.836248,103.748387 Z" id="Path"></path>
                    <path d="M226.305548,20.7052258 L226.305548,59.2732903 C226.305548,67.5689677 219.579622,73.6479355 211.273104,72.9736129 C163.628326,69.0845161 115.800267,68.042 68.0588037,69.8552903 C50.6025037,70.512 33.1554519,71.5545161 15.734463,72.9736129 C7.42794444,73.6479355 0.69277037,67.5689677 0.69277037,59.2732903 L0.69277037,20.7052258 C0.69277037,12.4095484 7.42794444,5.03477419 15.734463,4.3596129 C35.1925667,2.77445161 54.6859815,1.66148387 74.1793963,1.0223871 L74.1878037,1.0223871 C119.891311,-0.483935484 165.665441,0.636580645 211.273104,4.3596129 C219.579622,5.03477419 226.305548,12.4103871 226.305548,20.7052258 Z" id="Path"></path>
                </g>
                <path d="M122.50467,172.830701 C104.928432,173.487389 87.361506,174.529872 69.8208217,175.948924 C61.4572311,176.623225 54.6757812,170.544451 54.6757812,162.249039 L54.6757812,123.682209 C54.6757812,115.386797 61.4572311,108.012259 69.8208217,107.337119 C89.4126173,105.752008 109.039967,104.639076 128.667316,104 L128.675781,104 C128.675781,104 102.532788,131.627051 122.50467,172.830701 Z" id="Path" fill="#E5E1DC"></path>
                <path d="M197.167677,424 C194.392937,424 191.858215,422.155546 190.995313,419.52073 C190.11414,416.831004 191.098296,413.781041 193.419577,412.152896 C198.040545,408.912413 204.579996,412.962392 203.571754,418.593927 C203.021955,421.664689 200.302029,424 197.167677,424 Z" id="Path" fill="#FCF8F2"></path>
                <path d="M129.675781,316.541112 L128.309487,317.248697 C110.825285,319.794651 91.1067018,315.59569 74.6642045,308.788988 C66.692898,305.473662 59.4923859,301.558243 53.6757812,297.491319 C57.0919357,297.491319 60.2195664,297.031727 63.1450627,296.182794 C76.8457458,292.258064 86.1128929,280.147011 99.0603949,269 C99.0603949,269 84.3263943,289.278757 95.0663543,303.254417 C105.805476,317.230923 129.675781,316.541112 129.675781,316.541112 Z" id="Path" fill="#E8E3DD"></path>
            </g>
        </g>
    </g>
</svg>